<svg xmlns="http://www.w3.org/2000/svg" viewBox="430 1991 85.113 82.378">
  <defs>
    <style>
      .cls-1 {
        fill: #707070;
      }
    </style>
  </defs>
  <g id="analysis" transform="translate(430 1991)">
    <g id="Group_77" data-name="Group 77" transform="translate(11.334 8.242)">
      <g id="Group_76" data-name="Group 76">
        <path id="Path_42" data-name="Path 42" class="cls-1" d="M104.978,64.121a21.56,21.56,0,1,0,6.315,15.245A21.419,21.419,0,0,0,104.978,64.121ZM76.224,65.857a19.109,19.109,0,0,1,32.351,10.332l-6.693,6.545a4.368,4.368,0,0,0-5.78,1.385l-9.837-3.087c0-.028,0-.057,0-.085a4.376,4.376,0,1,0-8.174,2.169l-5.161,5.35A19.139,19.139,0,0,1,76.224,65.857ZM101.66,86.546a1.92,1.92,0,1,1-1.92-1.92A1.922,1.922,0,0,1,101.66,86.546Zm-17.848-5.6a1.92,1.92,0,1,1-1.92-1.92A1.922,1.922,0,0,1,83.812,80.946Zm19.43,11.93A19.11,19.11,0,0,1,74.281,90.6l5.58-5.784a4.368,4.368,0,0,0,5.669-1.446l9.837,3.087c0,.028,0,.057,0,.085a4.376,4.376,0,1,0,8.236-2.058l5.238-5.122A18.98,18.98,0,0,1,103.242,92.876Z" transform="translate(-68.183 -57.806)"/>
      </g>
    </g>
    <g id="Group_79" data-name="Group 79" transform="translate(22.012 13.225)">
      <g id="Group_78" data-name="Group 78">
        <path id="Path_43" data-name="Path 43" class="cls-1" d="M132.414,91.835l1.611,1.853a14.174,14.174,0,0,1,13.932-2.663l.808-2.319A16.636,16.636,0,0,0,132.414,91.835Z" transform="translate(-132.414 -87.783)"/>
      </g>
    </g>
    <g id="Group_81" data-name="Group 81" transform="translate(40.237 15.637)">
      <g id="Group_80" data-name="Group 80">
        <path id="Path_44" data-name="Path 44" class="cls-1" d="M243.323,102.292l-1.277,2.1a14.1,14.1,0,0,1,1.854,1.349l1.6-1.862A16.588,16.588,0,0,0,243.323,102.292Z" transform="translate(-242.046 -102.292)"/>
      </g>
    </g>
    <g id="Group_83" data-name="Group 83" transform="translate(26.697 42.911)">
      <g id="Group_82" data-name="Group 82">
        <path id="Path_45" data-name="Path 45" class="cls-1" d="M169.723,267.065a14.156,14.156,0,0,1-8.211-.708l-.913,2.279a16.58,16.58,0,0,0,6.175,1.193,16.749,16.749,0,0,0,3.456-.362Z" transform="translate(-160.598 -266.357)"/>
      </g>
    </g>
    <g id="Group_85" data-name="Group 85" transform="translate(0 0)">
      <g id="Group_84" data-name="Group 84">
        <path id="Path_46" data-name="Path 46" class="cls-1" d="M63.641,57.755l-1.783,1.783L57.435,54.81a29.831,29.831,0,0,0,3.779-25.8l3.509-3.432a4.373,4.373,0,0,0,5.97-5.838l7.533-7.366V16.18h2.455V8.227H72.73v2.455h3.713l-7.434,7.269a4.372,4.372,0,0,0-6.034,5.9l-2.689,2.63A29.737,29.737,0,1,0,8.474,55.017L6.406,57.159a4.382,4.382,0,1,0,1.767,1.705l1.806-1.872q.883,1.065,1.878,2.064A29.787,29.787,0,0,0,49.6,62.625l4.433,4.739-1.844,1.844L73.66,90.6,85.113,79.152ZM66.8,19.8a1.92,1.92,0,1,1-1.92,1.92A1.922,1.922,0,0,1,66.8,19.8ZM4.376,62.953a1.92,1.92,0,1,1,1.92-1.92A1.922,1.922,0,0,1,4.376,62.953Zm9.218-5.633a27.281,27.281,0,1,1,38.582,0A27.312,27.312,0,0,1,13.594,57.32Zm37.989,3.832a29.914,29.914,0,0,0,4.36-4.344l4.178,4.466-4.352,4.352ZM73.657,87.135,55.664,69.2l7.98-7.98,17.993,17.93Z" transform="translate(0 -8.227)"/>
      </g>
    </g>
    <g id="Group_87" data-name="Group 87" transform="translate(60.129 56.562)">
      <g id="Group_86" data-name="Group 86">
        <path id="Path_47" data-name="Path 47" class="cls-1" d="M365.223,348.478l-3.514,3.513,1.737,1.736,1.777-1.777L372,358.727l1.736-1.736Z" transform="translate(-361.709 -348.478)"/>
      </g>
    </g>
    <g id="Group_89" data-name="Group 89" transform="translate(72.525 67.176)">
      <g id="Group_88" data-name="Group 88" transform="translate(0 0)">
        <rect id="Rectangle_417" data-name="Rectangle 417" class="cls-1" width="2.455" height="2.574" transform="translate(0 1.736) rotate(-45)"/>
      </g>
    </g>
    <g id="Group_91" data-name="Group 91" transform="translate(13.304 60.783)">
      <g id="Group_90" data-name="Group 90">
        <rect id="Rectangle_418" data-name="Rectangle 418" class="cls-1" width="2.455" height="2.675"/>
      </g>
    </g>
    <g id="Group_93" data-name="Group 93" transform="translate(13.304 75.777)">
      <g id="Group_92" data-name="Group 92">
        <rect id="Rectangle_419" data-name="Rectangle 419" class="cls-1" width="2.455" height="2.675"/>
      </g>
    </g>
    <g id="Group_95" data-name="Group 95" transform="translate(33.527 65.942)">
      <g id="Group_94" data-name="Group 94">
        <rect id="Rectangle_420" data-name="Rectangle 420" class="cls-1" width="2.455" height="2.675"/>
      </g>
    </g>
    <g id="Group_97" data-name="Group 97" transform="translate(68.716 43.858)">
      <g id="Group_96" data-name="Group 96">
        <rect id="Rectangle_421" data-name="Rectangle 421" class="cls-1" width="2.455" height="2.675"/>
      </g>
    </g>
    <g id="Group_99" data-name="Group 99" transform="translate(71.502 22.552)">
      <g id="Group_98" data-name="Group 98">
        <rect id="Rectangle_422" data-name="Rectangle 422" class="cls-1" width="2.455" height="2.675"/>
      </g>
    </g>
    <g id="Group_101" data-name="Group 101" transform="translate(79.64 33.834)">
      <g id="Group_100" data-name="Group 100">
        <rect id="Rectangle_423" data-name="Rectangle 423" class="cls-1" width="2.455" height="2.675"/>
      </g>
    </g>
  </g>
</svg>
