<svg xmlns="http://www.w3.org/2000/svg" viewBox="758 1985.063 80.591 85.113">
  <defs>
    <style>
      .cls-1 {
        fill: #707070;
      }
    </style>
  </defs>
  <g id="bar-chart_1_" data-name="bar-chart (1)" transform="translate(758 1985.063)">
    <g id="Group_65" data-name="Group 65" transform="translate(0 24.379)">
      <g id="Group_64" data-name="Group 64">
        <path id="Path_39" data-name="Path 39" class="cls-1" d="M92.53,204.063H88.884v-52.94a4.474,4.474,0,0,0-4.469-4.469h-8.15a4.474,4.474,0,0,0-4.469,4.469v52.94H62.538V175.109a4.474,4.474,0,0,0-4.469-4.469H49.92a4.474,4.474,0,0,0-4.469,4.469v28.954H36.193v-15a4.474,4.474,0,0,0-4.469-4.469h-8.15a4.474,4.474,0,0,0-4.469,4.469v15H15.263a1.662,1.662,0,0,0,0,3.325H92.53a1.662,1.662,0,0,0,0-3.325Zm-59.661,0H22.431v-15a1.145,1.145,0,0,1,1.144-1.144h8.15a1.145,1.145,0,0,1,1.144,1.144Zm26.345,0H48.776V175.109a1.145,1.145,0,0,1,1.144-1.144h8.15a1.145,1.145,0,0,1,1.144,1.144Zm26.345,0H75.121v-52.94a1.145,1.145,0,0,1,1.144-1.144h8.15a1.145,1.145,0,0,1,1.144,1.144Z" transform="translate(-13.601 -146.654)"/>
      </g>
    </g>
    <g id="Group_67" data-name="Group 67" transform="translate(14.254)">
      <g id="Group_66" data-name="Group 66">
        <path id="Path_40" data-name="Path 40" class="cls-1" d="M160.371,1.748A1.657,1.657,0,0,0,158.627,0c-.027,0-.053,0-.08,0H148.489a1.662,1.662,0,0,0,0,3.325h6.21L138.265,19.759l-6.2-6.2a1.662,1.662,0,0,0-2.351,0L99.833,43.446a1.662,1.662,0,0,0,2.351,2.351l28.709-28.709,6.2,6.2a1.663,1.663,0,0,0,2.351,0L157.05,5.676V11.3a1.662,1.662,0,0,0,3.325,0V1.829C160.375,1.8,160.372,1.775,160.371,1.748Z" transform="translate(-99.346)"/>
      </g>
    </g>
    <g id="Group_69" data-name="Group 69" transform="translate(8.651 48.759)">
      <g id="Group_68" data-name="Group 68">
        <ellipse id="Ellipse_12" data-name="Ellipse 12" class="cls-1" cx="1.662" cy="1.662" rx="1.662" ry="1.662"/>
      </g>
    </g>
  </g>
</svg>
