<svg xmlns="http://www.w3.org/2000/svg" viewBox="1406 1989.157 84.532 84.762">
  <defs>
    <style>
      .cls-1 {
        fill: #707070;
      }
    </style>
  </defs>
  <g id="search" transform="translate(1406 1989.157)">
    <g id="Group_63" data-name="Group 63" transform="translate(0)">
      <path id="Path_38" data-name="Path 38" class="cls-1" d="M83.146,72.654,65.291,54.57l-1-1.016-2.012,2.012L51.906,45.2a28.243,28.243,0,0,0,5.527-16.825c0-.027,0-.053,0-.079h0l-.006-.108A28.378,28.378,0,0,0,34.581.538L34.543.531q-.31-.061-.622-.115L33.829.4c-.192-.032-.384-.064-.577-.092l-.146-.02c-.177-.025-.354-.05-.532-.072l-.2-.023c-.162-.019-.323-.038-.486-.054L31.629.117C31.483.1,31.338.09,31.192.079c-.107-.008-.216-.014-.323-.02-.126-.008-.252-.017-.379-.023s-.28-.011-.42-.016c-.1,0-.193-.008-.29-.011Q29.422,0,29.062,0c-.219,0-.437,0-.656.008-.127,0-.254.008-.381.012L27.8.029A28.368,28.368,0,0,0,8.687,48.112l.022.023q.313.322.635.634l.025.025q.65.627,1.339,1.212l.091.077q.69.581,1.417,1.119l.021.016q.359.265.727.518l.035.024a28.205,28.205,0,0,0,12.157,4.715l.063.009q.9.122,1.825.188l.193.012q.35.022.7.036l.237.009c.294.009.589.015.886.015a28.242,28.242,0,0,0,16.825-5.527L56.258,61.586l-2,2,18.85,19.093A7.093,7.093,0,1,0,83.146,72.654ZM47.364,30.126c-1.71,2.654-5.653,1.331-7.927-2.109a1.811,1.811,0,0,1-.222-.548c-.049-.188-.065-.277-.149-.769-.214-1.263-.44-1.851-1.323-2.325-.934-.5-2.025-.308-3.6.409-2.16,1-2.524,1.124-2.769,1.063a4.207,4.207,0,0,1-1.144-.738,1.48,1.48,0,0,1-.43-.686c-.039-.1-.073-.192-.154-.417-.735-2.019-1.959-2.825-4.546-2.2q-.4.1-.741.17a6.127,6.127,0,0,0,.8-4.327c.3.129.658.29,1.1.49l.158.072c2.4,1.087,3.313,1.389,4.392,1,2.671-.956,3.4-4.821,1.474-6.88a.993.993,0,0,1,.162-.644c.08-.107.067-.107.554.381,2.061,2.094,4.669.585,6.044-2.231a7.083,7.083,0,0,0,.7-4.659A25.535,25.535,0,0,1,54.4,25.455h-.789c-1.588-1.5-3.064-1.955-4.352-1-.922.684-1.313,1.776-1.6,3.515-.039.236-.074.477-.115.777-.01.07-.075.559-.093.689C47.383,29.9,47.317,30.2,47.364,30.126ZM19.87,6.816a11.029,11.029,0,0,0,1.375-2.729,25.457,25.457,0,0,1,6.734-1.225l.23-.009.282-.008c.19,0,.381-.007.572-.007q.32,0,.638.008l.243.009c.129,0,.259.008.387.015.1,0,.205.012.308.018s.211.012.317.02.232.019.348.029l.268.024c.128.013.257.027.385.041l.222.025q.21.026.42.055l.177.025q.229.033.457.071l.128.021q.251.043.5.09l.036.007-.6.257-.2.088a9.688,9.688,0,0,1-2.5.862c-2.115-.011-3.566.71-6.224,2.615l-.175.126A16.952,16.952,0,0,1,21.613,8.89,1.422,1.422,0,0,1,19.87,6.816ZM17.228,5.741a4.257,4.257,0,0,0,5.622,5.7,19.066,19.066,0,0,0,3-1.9l.174-.125c2.184-1.566,3.24-2.091,4.554-2.084A9.537,9.537,0,0,0,34.2,6.249l.209-.089c1.22-.523,1.541-.656,1.982-.805.112-.038.211-.068.3-.091.507.629.479,1.952-.194,3.328A3.6,3.6,0,0,1,35.3,10.079c-.183.106-.176.107-.289-.009-1.661-1.662-3.67-1.645-4.839-.084a3.446,3.446,0,0,0,.035,4.281,1.6,1.6,0,0,1-.356,2.273,23.263,23.263,0,0,1-2.264-.915l-.156-.071a10.7,10.7,0,0,0-3.282-1.191c-2.065-.229-2.744,1.464-1.914,3.429.382.912.192,1.823-.511,3.081-.092.165-.583.989-.7,1.209a1.912,1.912,0,0,0-.135,2.1c.71,1.223,1.681,1.144,4.866.385,1.069-.256.945-.338,1.22.416.08.222.127.349.18.484a4.109,4.109,0,0,0,1.341,1.9,5.826,5.826,0,0,0,2.182,1.24c1.2.3,1.657.146,4.645-1.236a6.962,6.962,0,0,1,.911-.354c.009.049.019.1.029.166a9.845,9.845,0,0,0,.2,1,4.56,4.56,0,0,0,.6,1.4c3.223,4.875,9.519,6.987,12.68,2.083a4.165,4.165,0,0,0,.509-1.834c.019-.139.086-.634.095-.7.038-.278.07-.5.1-.7a6.955,6.955,0,0,1,.394-1.546,5.111,5.111,0,0,1,1.141.966l.419.442H54.6c0,.027,0,.053,0,.079A25.42,25.42,0,0,1,49.347,43.88l-.436.538a25.743,25.743,0,0,1-3.8,3.8l-.5.405a25.472,25.472,0,0,1-7.035,3.824v-.795l3.84-3.84a1.419,1.419,0,0,0,.415-1V42.556a1.418,1.418,0,0,0-1.418-1.418H34.737V38.3a1.418,1.418,0,0,0-.97-1.346l-4.256-1.418a1.418,1.418,0,0,0-.449-.073H24.994l-3.474-.93-2.183-1.374a1.419,1.419,0,0,0-1.1-.176l-5.989,1.5-.29.107-3,1.5a1.421,1.421,0,0,0-.369.266l-2.718,2.72A25.552,25.552,0,0,1,17.228,5.741ZM28.291,53.892l-.214-.008q-.292-.011-.583-.029l-.2-.013c-.237-.016-.474-.035-.71-.058l-.043,0q-.818-.081-1.622-.213l-.029,0a25.448,25.448,0,0,1-9.765-3.8l-.014-.009q-.322-.21-.638-.431l-.037-.025q-.644-.451-1.26-.941l-.057-.046q-.275-.22-.543-.447L12.5,47.8q-.6-.51-1.166-1.057l-.011-.011q-.283-.273-.557-.555l-.016-.017a25.628,25.628,0,0,1-3.494-4.51l.262-.222,2.916-2.911L13.086,37.2l5.251-1.313,1.852,1.166a1.425,1.425,0,0,0,.388.17l3.861,1.034a1.417,1.417,0,0,0,.367.048h4.025L31.9,39.323v3.233a1.418,1.418,0,0,0,1.418,1.418h5.674v2.25l-3.84,3.84a1.419,1.419,0,0,0-.415,1v1.775l-.426.125c-.385.113-.7.2-.992.281a15.561,15.561,0,0,1-4.256.656C28.8,53.9,28.547,53.9,28.291,53.892Zm29.973,5.686L48.095,49.41q1.052-.953,2.006-2.006L60.27,57.572l-1,1Zm22.876,21.1a4.256,4.256,0,0,1-6.019,0L58.258,63.6l3.013-3.014,3.005-3L81.133,74.654A4.258,4.258,0,0,1,81.14,80.679Z" transform="translate(-0.691)"/>
    </g>
  </g>
</svg>
